<?xml version="1.0" standalone="no"?>
<!DOCTYPE svg PUBLIC "-//W3C//DTD SVG 20010904//EN"
 "http://www.w3.org/TR/2001/REC-SVG-20010904/DTD/svg10.dtd">
<svg version="1.0" xmlns="http://www.w3.org/2000/svg"
 width="968.000000pt" height="968.000000pt" viewBox="0 0 968.000000 968.000000"
 preserveAspectRatio="xMidYMid meet">
<metadata>
Created by potrace 1.14, written by Peter Selinger 2001-2017
</metadata>
<g transform="translate(0.000000,968.000000) scale(0.100000,-0.100000)"
fill="#000000" stroke="none">
<path d="M2127 9634 c-1 -1 -59 -4 -128 -8 -70 -3 -133 -8 -140 -10 -18 -6
-97 -18 -126 -19 -13 -1 -23 -3 -23 -6 0 -4 -15 -7 -33 -9 -17 -1 -77 -16
-132 -33 -55 -16 -104 -31 -110 -33 -5 -2 -19 -7 -30 -11 -11 -5 -40 -16 -65
-26 -74 -28 -183 -80 -212 -101 -16 -11 -28 -17 -28 -14 0 5 -155 -94 -177
-113 -7 -6 -16 -11 -22 -11 -5 0 -11 -3 -13 -8 -1 -4 -23 -23 -48 -42 -122
-95 -340 -313 -340 -341 0 -5 -4 -9 -9 -9 -9 0 -93 -116 -121 -168 -8 -15 -18
-29 -21 -32 -4 -3 -26 -41 -50 -85 -74 -134 -152 -322 -165 -392 -3 -14 -8
-31 -12 -37 -3 -6 -7 -15 -8 -21 -8 -41 -14 -64 -22 -86 -6 -15 -9 -29 -6 -31
2 -3 0 -18 -5 -34 -6 -16 -12 -49 -16 -74 -3 -25 -9 -70 -13 -100 -9 -73 -9
-5792 1 -5897 4 -45 9 -88 12 -95 2 -7 6 -26 9 -43 3 -16 7 -41 10 -55 3 -14
11 -50 17 -80 6 -30 14 -59 17 -65 4 -5 7 -14 9 -20 25 -116 133 -362 212
-485 20 -30 36 -57 36 -60 1 -9 68 -101 124 -169 89 -111 236 -258 323 -323
20 -15 42 -33 50 -40 7 -7 25 -19 41 -27 15 -8 27 -18 27 -23 0 -4 7 -8 15 -8
8 0 15 -4 15 -8 0 -5 17 -17 38 -28 58 -32 87 -48 92 -55 9 -10 176 -89 188
-89 7 0 12 -5 12 -11 0 -5 4 -8 9 -5 4 3 17 -1 27 -9 10 -8 28 -15 39 -15 12
0 25 -4 30 -9 17 -15 227 -75 300 -86 11 -2 34 -6 50 -10 35 -7 55 -10 155
-21 101 -12 5773 -11 5875 0 95 10 120 14 120 16 0 1 9 3 20 5 25 5 87 17 100
21 6 1 24 5 42 8 40 8 224 66 238 76 6 3 33 15 60 25 51 18 256 122 265 134 6
7 39 28 60 38 16 7 161 112 170 123 3 3 19 16 35 29 70 53 259 249 304 315 8
12 17 23 20 26 53 47 271 436 271 483 0 9 4 18 9 21 4 3 14 27 21 53 7 27 16
53 19 58 3 6 7 16 8 23 5 19 9 36 16 52 5 15 23 90 32 140 17 89 26 142 32
195 11 81 10 5824 0 5900 -4 33 -10 72 -12 87 -2 14 -6 39 -9 55 -12 52 -17
78 -22 103 -3 14 -10 43 -16 65 -6 22 -12 45 -13 50 -16 76 -117 310 -183 425
-24 41 -51 89 -60 105 -9 17 -19 32 -22 35 -3 3 -17 21 -30 40 -13 19 -27 37
-30 40 -4 3 -11 12 -16 21 -38 69 -235 268 -369 373 -60 47 -115 91 -122 96
-7 6 -15 10 -19 10 -3 0 -18 8 -32 19 -15 10 -47 30 -72 44 -66 37 -180 96
-185 97 -4 1 -20 7 -105 43 -14 6 -27 11 -30 12 -3 0 -34 10 -70 22 -82 26
-166 50 -205 58 -16 3 -41 8 -55 11 -14 3 -41 7 -60 10 -19 3 -48 7 -65 9 -94
14 -540 17 -2993 18 -1487 1 -2704 1 -2705 1z"/>
</g>
</svg>
